<svg width="64" height="64" viewBox="0 0 64 64" fill="none" xmlns="http://www.w3.org/2000/svg">
    <path d="M16 36C12.6863 36 10 33.3137 10 30C10 26.6863 12.6863 24 16 24C16.3632 21.3649 18.7368 19 22 19C25.2632 19 27.6368 21.3649 28 24H32C35.3137 24 38 26.6863 38 30C38 33.3137 35.3137 36 32 36H16Z" fill="#0066CC" fill-opacity="0.1"/>
    <path d="M16 36C12.6863 36 10 33.3137 10 30C10 26.6863 12.6863 24 16 24C16.3632 21.3649 18.7368 19 22 19C25.2632 19 27.6368 21.3649 28 24H32C35.3137 24 38 26.6863 38 30C38 33.3137 35.3137 36 32 36H16Z" stroke="#0066CC" stroke-width="2"/>
    <path d="M20 26C16.6863 26 14 23.3137 14 20C14 16.6863 16.6863 14 20 14C20.3632 11.3649 22.7368 9 26 9C29.2632 9 31.6368 11.3649 32 14H36C39.3137 14 42 16.6863 42 20C42 23.3137 39.3137 26 36 26H20Z" fill="#00D4AA" fill-opacity="0.3"/>
    <path d="M20 26C16.6863 26 14 23.3137 14 20C14 16.6863 16.6863 14 20 14C20.3632 11.3649 22.7368 9 26 9C29.2632 9 31.6368 11.3649 32 14H36C39.3137 14 42 16.6863 42 20C42 23.3137 39.3137 26 36 26H20Z" stroke="#00D4AA" stroke-width="2"/>
    <path d="M44 46C40.6863 46 38 43.3137 38 40C38 36.6863 40.6863 34 44 34C44.3632 31.3649 46.7368 29 50 29C53.2632 29 55.6368 31.3649 56 34H60C63.3137 34 66 36.6863 66 40C66 43.3137 63.3137 46 60 46H44Z" fill="#FF6B35" fill-opacity="0.2"/>
    <path d="M44 46C40.6863 46 38 43.3137 38 40C38 36.6863 40.6863 34 44 34C44.3632 31.3649 46.7368 29 50 29C53.2632 29 55.6368 31.3649 56 34H60C63.3137 34 66 36.6863 66 40C66 43.3137 63.3137 46 60 46H44Z" stroke="#FF6B35" stroke-width="2"/>
    <rect x="12" y="48" width="40" height="8" rx="4" fill="#0066CC" fill-opacity="0.1"/>
    <rect x="12" y="48" width="40" height="8" rx="4" stroke="#0066CC" stroke-width="2"/>
    <circle cx="16" cy="52" r="1" fill="#0066CC"/>
    <rect x="20" y="51" width="8" height="2" rx="1" fill="#0066CC" fill-opacity="0.6"/>
</svg>