<svg width="64" height="64" viewBox="0 0 64 64" fill="none" xmlns="http://www.w3.org/2000/svg">
    <rect x="8" y="12" width="48" height="40" rx="4" fill="#0066CC" fill-opacity="0.1"/>
    <rect x="8" y="12" width="48" height="40" rx="4" stroke="#0066CC" stroke-width="2"/>
    <circle cx="20" cy="24" r="4" fill="#0066CC"/>
    <path d="M12 40L20 32L28 40L36 28L52 44V48C52 49.1046 51.1046 50 50 50H14C12.8954 50 12 49.1046 12 48V40Z" fill="#0066CC" fill-opacity="0.3"/>
    <rect x="32" y="16" width="16" height="2" rx="1" fill="#0066CC"/>
    <rect x="32" y="20" width="12" height="2" rx="1" fill="#0066CC" fill-opacity="0.6"/>
    <rect x="32" y="24" width="8" height="2" rx="1" fill="#0066CC" fill-opacity="0.4"/>
    <circle cx="48" cy="8" r="6" fill="#FF6B35"/>
    <path d="M45 8L47 10L51 6" stroke="white" stroke-width="2" stroke-linecap="round" stroke-linejoin="round"/>
</svg>