<svg width="64" height="64" viewBox="0 0 64 64" fill="none" xmlns="http://www.w3.org/2000/svg">
    <rect x="8" y="16" width="48" height="36" rx="2" fill="#0066CC" fill-opacity="0.1"/>
    <rect x="8" y="16" width="48" height="36" rx="2" stroke="#0066CC" stroke-width="2"/>
    <rect x="12" y="22" width="40" height="24" rx="1" fill="white"/>
    <path d="M16 28L20 32L28 24" stroke="#00D4AA" stroke-width="2.5" stroke-linecap="round" stroke-linejoin="round"/>
    <rect x="32" y="26" width="16" height="2" rx="1" fill="#0066CC" fill-opacity="0.6"/>
    <rect x="32" y="30" width="12" height="2" rx="1" fill="#0066CC" fill-opacity="0.4"/>
    <rect x="16" y="36" width="20" height="2" rx="1" fill="#0066CC" fill-opacity="0.3"/>
    <rect x="16" y="40" width="16" height="2" rx="1" fill="#0066CC" fill-opacity="0.3"/>
    <circle cx="48" cy="8" r="6" fill="#FF6B35"/>
    <path d="M45 8L47 10L51 6" stroke="white" stroke-width="1.5" stroke-linecap="round" stroke-linejoin="round"/>
    <path d="M20 56L24 52L28 56L32 52L36 56L40 52L44 56" stroke="#00D4AA" stroke-width="2" stroke-linecap="round" stroke-linejoin="round"/>
</svg>