<svg width="64" height="64" viewBox="0 0 64 64" fill="none" xmlns="http://www.w3.org/2000/svg">
    <circle cx="20" cy="32" r="14" fill="#0066CC" fill-opacity="0.1"/>
    <circle cx="20" cy="32" r="14" stroke="#0066CC" stroke-width="2"/>
    <path d="M26 26L34 32L26 38V26Z" fill="#0066CC"/>
    <rect x="36" y="20" width="20" height="24" rx="2" fill="white" stroke="#0066CC" stroke-width="2"/>
    <rect x="40" y="24" width="12" height="2" rx="1" fill="#0066CC" fill-opacity="0.6"/>
    <rect x="40" y="28" width="8" height="2" rx="1" fill="#0066CC" fill-opacity="0.4"/>
    <rect x="40" y="32" width="10" height="2" rx="1" fill="#0066CC" fill-opacity="0.4"/>
    <rect x="40" y="36" width="6" height="2" rx="1" fill="#0066CC" fill-opacity="0.3"/>
    <path d="M12 24L4 20V16L12 20L20 16L28 20L36 16V20L28 24" stroke="#FF6B35" stroke-width="2" stroke-linecap="round" stroke-linejoin="round"/>
    <circle cx="52" cy="12" r="6" fill="#FF6B35"/>
    <path d="M49 12L51 14L55 10" stroke="white" stroke-width="1.5" stroke-linecap="round" stroke-linejoin="round"/>
</svg>